<?xml version="1.0" encoding="utf-8"?>
<!-- Generator: Adobe Illustrator 24.2.0, SVG Export Plug-In . SVG Version: 6.00 Build 0)  -->
<svg version="1.1" id="Layer_1" xmlns="http://www.w3.org/2000/svg" xmlns:xlink="http://www.w3.org/1999/xlink" x="0px" y="0px"
	 viewBox="0 0 250 250" enable-background="new 0 0 250 250" xml:space="preserve">
<g>
	<path fill-rule="evenodd" clip-rule="evenodd" fill="#602E87" d="M-2986.713,197.076h-4.684c-0.298,0-0.551,0.091-0.749,0.291
		c-0.194,0.189-0.289,0.438-0.289,0.744v28.668c0,0.34-0.091,0.505-0.269,0.505c-0.157,0-0.318-0.142-0.446-0.423l-12.701-28.032
		c-0.318-0.678-0.624-1.133-0.97-1.389c-0.352-0.248-0.827-0.364-1.435-0.364h-5.878c-0.603,0-1.107,0.207-1.537,0.629
		c-0.431,0.43-0.632,0.952-0.632,1.547v37.242c0,0.306,0.103,0.563,0.334,0.769c0.232,0.223,0.484,0.323,0.744,0.323h4.643
		c0.278,0,0.521-0.1,0.728-0.306c0.203-0.207,0.314-0.463,0.314-0.786v-27.415c0-0.282,0.074-0.431,0.243-0.431
		c0.203,0,0.381,0.149,0.521,0.431l12.084,26.54c0.385,0.852,0.84,1.396,1.335,1.628c0.484,0.231,1.154,0.34,1.992,0.34h5.506
		c0.608,0,1.129-0.206,1.559-0.637c0.417-0.422,0.624-0.942,0.624-1.538v-37.3c0-0.306-0.103-0.555-0.281-0.744
		C-2986.164,197.167-2986.412,197.076-2986.713,197.076z"/>
	<path fill-rule="evenodd" clip-rule="evenodd" fill="#602E87" d="M-2950.528,199.524c-0.534-0.348-1.344-0.735-2.444-1.191
		c-1.109-0.454-2.356-0.843-3.755-1.183c-1.397-0.338-2.91-0.504-4.522-0.504c-1.964,0-3.799,0.232-5.543,0.703
		c-1.733,0.47-3.382,1.323-4.929,2.563c-1.553,1.244-2.803,2.979-3.737,5.213c-0.93,2.225-1.389,4.994-1.389,8.317v7.855
		c0,3.009,0.451,5.606,1.352,7.781c0.913,2.174,2.109,3.927,3.616,5.258c1.519,1.339,3.101,2.282,4.759,2.835
		c1.65,0.563,3.291,0.844,4.874,0.844c1.39,0,2.935-0.041,4.622-0.108c1.708-0.075,3.104-0.182,4.234-0.322
		c1.136-0.141,2.141-0.297,3.047-0.48c0.678-0.174,1.025-0.619,1.025-1.33v-18.314c0-0.297-0.115-0.563-0.326-0.769
		c-0.215-0.206-0.459-0.322-0.749-0.322h-5.404c-0.287,0-0.528,0.116-0.727,0.339c-0.203,0.223-0.306,0.471-0.306,0.752v13.923
		c-1.706,0.108-3.513,0.157-5.416,0.157c-1.88,0-3.501-0.819-4.89-2.464c-1.381-1.637-2.08-4.225-2.08-7.781v-7.962
		c0-3.728,0.69-6.35,2.058-7.896c1.364-1.53,3.506-2.3,6.441-2.3c1.807,0,3.587,0.257,5.366,0.761
		c1.76,0.505,3.319,1.034,4.658,1.578c0.914,0.34,1.373,0.066,1.373-0.827v-3.645
		C-2949.318,200.479-2949.719,199.987-2950.528,199.524z"/>
	<path fill-rule="evenodd" clip-rule="evenodd" fill="#602E87" d="M-2930.731,194.298c0.326,0,0.549-0.04,0.69-0.149
		c0.15-0.091,0.344-0.281,0.616-0.569l3.885-4.415l3.857,4.415c0.128,0.123,0.24,0.247,0.381,0.38
		c0.11,0.116,0.252,0.207,0.384,0.264c0.129,0.05,0.298,0.074,0.492,0.074h4.518c0.348,0,0.513-0.124,0.513-0.372
		c0-0.223-0.083-0.412-0.223-0.562l-4.957-6.548c-0.29-0.332-0.521-0.554-0.69-0.646c-0.15-0.098-0.403-0.149-0.729-0.149h-7.089
		c-0.335,0-0.579,0.05-0.736,0.132c-0.14,0.091-0.38,0.314-0.706,0.663l-4.994,6.548c-0.149,0.149-0.215,0.339-0.215,0.562
		c0,0.248,0.157,0.372,0.475,0.372H-2930.731z"/>
	<path fill-rule="evenodd" clip-rule="evenodd" fill="#602E87" d="M-2909.01,236.387l-8.947-34.172
		c-0.959-3.717-3.494-5.569-7.583-5.569c-4.071,0-6.597,1.852-7.557,5.569l-8.944,34.172c0,0.074,0,0.132-0.009,0.165
		c-0.013,0.032-0.029,0.066-0.05,0.107c0,0.272,0.088,0.504,0.281,0.678c0.186,0.166,0.431,0.248,0.699,0.248h5.775
		c0.244,0,0.458-0.091,0.661-0.282c0.198-0.181,0.338-0.396,0.375-0.644l2.514-10.359h12.542l2.497,10.359
		c0.057,0.249,0.186,0.463,0.392,0.644c0.203,0.191,0.418,0.282,0.641,0.282h5.78c0.276,0,0.521-0.082,0.707-0.248
		c0.178-0.174,0.281-0.406,0.281-0.678c0-0.057-0.012-0.098-0.012-0.132C-2908.973,236.486-2908.99,236.444-2909.01,236.387
		L-2909.01,236.387z M-2930.322,220.099L-2930.322,220.099l3.924-16.214c0.095-0.339,0.186-0.562,0.318-0.677
		c0.112-0.116,0.29-0.174,0.541-0.174c0.269,0,0.455,0.057,0.575,0.174c0.112,0.115,0.215,0.338,0.311,0.677l3.931,16.214H-2930.322
		z"/>
	<path fill-rule="evenodd" clip-rule="evenodd" fill="#602E87" d="M-2872.161,197.076h-4.676c-0.306,0-0.549,0.091-0.756,0.291
		c-0.194,0.189-0.285,0.438-0.285,0.744v28.668c0,0.34-0.087,0.505-0.265,0.505c-0.166,0-0.306-0.142-0.447-0.423l-12.699-28.032
		c-0.318-0.678-0.633-1.133-0.981-1.389c-0.335-0.248-0.818-0.364-1.422-0.364h-5.882c-0.604,0-1.124,0.207-1.546,0.629
		c-0.426,0.43-0.634,0.952-0.634,1.547v37.242c0,0.306,0.112,0.563,0.344,0.769c0.237,0.223,0.475,0.323,0.736,0.323h4.651
		c0.269,0,0.514-0.1,0.72-0.306c0.215-0.207,0.315-0.463,0.315-0.786v-27.415c0-0.282,0.086-0.431,0.252-0.431
		c0.194,0,0.363,0.149,0.512,0.431l12.087,26.54c0.38,0.852,0.826,1.396,1.323,1.628c0.501,0.231,1.174,0.34,2.001,0.34h5.515
		c0.595,0,1.116-0.206,1.547-0.637c0.421-0.422,0.635-0.942,0.635-1.538v-37.3c0-0.306-0.094-0.555-0.289-0.744
		C-2871.603,197.167-2871.85,197.076-2872.161,197.076z"/>
	<path fill-rule="evenodd" clip-rule="evenodd" fill="#602E87" d="M-2815.396,197.076h-5.403c-0.29,0-0.541,0.1-0.756,0.298
		c-0.232,0.207-0.343,0.455-0.343,0.737v15.043h-15.457V198.11c0-0.282-0.125-0.529-0.348-0.737
		c-0.211-0.198-0.462-0.298-0.752-0.298h-5.404c-0.281,0-0.532,0.1-0.764,0.298c-0.215,0.207-0.326,0.455-0.326,0.737v38.383
		c0,0.306,0.119,0.563,0.343,0.769c0.235,0.223,0.484,0.323,0.747,0.323h5.404c0.269,0,0.512-0.1,0.752-0.323
		c0.223-0.206,0.348-0.463,0.348-0.769v-16.693h15.457v16.693c0,0.306,0.111,0.563,0.343,0.769c0.235,0.223,0.487,0.323,0.756,0.323
		h5.403c0.289,0,0.55-0.1,0.764-0.306c0.208-0.207,0.328-0.463,0.328-0.786V198.11c0-0.323-0.113-0.579-0.306-0.761
		C-2814.818,197.167-2815.087,197.076-2815.396,197.076z"/>
	<path fill-rule="evenodd" clip-rule="evenodd" fill="#602E87" d="M-2774.025,236.387l-8.946-34.172
		c-0.95-3.717-3.485-5.569-7.573-5.569c-4.093,0-6.619,1.852-7.578,5.569l-8.934,34.172c0,0.074,0,0.132-0.021,0.165
		c-0.008,0.032-0.016,0.066-0.037,0.107c0,0.272,0.103,0.504,0.289,0.678c0.178,0.166,0.418,0.248,0.698,0.248h5.767
		c0.237,0,0.46-0.091,0.661-0.282c0.199-0.181,0.335-0.396,0.385-0.644l2.497-10.359h12.55l2.497,10.359
		c0.046,0.249,0.187,0.463,0.389,0.644c0.198,0.191,0.413,0.282,0.645,0.282h5.775c0.281,0,0.525-0.082,0.703-0.248
		c0.194-0.174,0.276-0.406,0.276-0.678c0-0.057,0-0.098-0.007-0.132C-2773.997,236.486-2774.009,236.444-2774.025,236.387
		L-2774.025,236.387z M-2795.344,220.099L-2795.344,220.099l3.932-16.214c0.095-0.339,0.207-0.562,0.318-0.677
		c0.112-0.116,0.298-0.174,0.55-0.174c0.247,0,0.447,0.057,0.566,0.174c0.112,0.115,0.215,0.338,0.298,0.677l3.944,16.214H-2795.344
		z"/>
	<path fill-rule="evenodd" clip-rule="evenodd" fill="#602E87" d="M-2790.937,193.58c0.141,0.123,0.26,0.247,0.392,0.38
		c0.12,0.116,0.247,0.207,0.381,0.264c0.12,0.05,0.289,0.074,0.484,0.074h4.688c0.326,0,0.504-0.124,0.504-0.372
		c0-0.223-0.066-0.412-0.206-0.562l-5.143-6.548c-0.281-0.332-0.504-0.554-0.67-0.646c-0.161-0.098-0.414-0.149-0.735-0.149h-5.78
		c-0.41,0-0.616,0.124-0.616,0.371c0,0.149,0.088,0.289,0.244,0.423L-2790.937,193.58z"/>
	<path fill-rule="evenodd" clip-rule="evenodd" fill="#602E87" d="M-2737.162,197.076h-4.687c-0.298,0-0.56,0.091-0.749,0.291
		c-0.195,0.189-0.286,0.438-0.286,0.744v28.668c0,0.34-0.094,0.505-0.272,0.505c-0.166,0-0.306-0.142-0.447-0.423l-12.699-28.032
		c-0.319-0.678-0.624-1.133-0.981-1.389c-0.334-0.248-0.818-0.364-1.425-0.364h-5.879c-0.603,0-1.109,0.207-1.546,0.629
		c-0.417,0.43-0.645,0.952-0.645,1.547v37.242c0,0.306,0.124,0.563,0.355,0.769c0.223,0.223,0.484,0.323,0.744,0.323h4.634
		c0.286,0,0.53-0.1,0.736-0.306c0.203-0.207,0.298-0.463,0.298-0.786v-27.415c0-0.282,0.091-0.431,0.261-0.431
		c0.206,0,0.372,0.149,0.512,0.431l12.084,26.54c0.4,0.852,0.838,1.396,1.343,1.628c0.484,0.231,1.144,0.34,1.993,0.34h5.498
		c0.616,0,1.116-0.206,1.554-0.637c0.422-0.422,0.637-0.942,0.637-1.538v-37.3c0-0.306-0.096-0.555-0.289-0.744
		C-2736.616,197.167-2736.865,197.076-2737.162,197.076z"/>
	<path fill-rule="evenodd" clip-rule="evenodd" fill="#602E87" d="M-2700.981,199.524c-0.534-0.348-1.344-0.735-2.443-1.191
		c-1.099-0.454-2.357-0.843-3.754-1.183c-1.397-0.338-2.918-0.504-4.531-0.504c-1.956,0-3.791,0.232-5.535,0.703
		c-1.733,0.47-3.39,1.323-4.936,2.563c-1.559,1.244-2.794,2.979-3.738,5.213c-0.921,2.225-1.389,4.994-1.389,8.317v7.855
		c0,3.009,0.448,5.606,1.361,7.781c0.896,2.174,2.108,3.927,3.616,5.258c1.518,1.339,3.093,2.282,4.743,2.835
		c1.67,0.563,3.307,0.844,4.903,0.844c1.376,0,2.915-0.041,4.609-0.108c1.7-0.075,3.104-0.182,4.234-0.322
		c1.136-0.141,2.142-0.297,3.047-0.48c0.669-0.174,1.012-0.619,1.012-1.33v-18.314c0-0.297-0.112-0.563-0.314-0.769
		c-0.223-0.206-0.467-0.322-0.748-0.322h-5.412c-0.273,0-0.521,0.116-0.719,0.339c-0.203,0.223-0.306,0.471-0.306,0.752v13.923
		c-1.716,0.108-3.523,0.157-5.403,0.157c-1.885,0-3.514-0.819-4.912-2.464c-1.372-1.637-2.071-4.225-2.071-7.781v-7.962
		c0-3.728,0.69-6.35,2.05-7.896c1.36-1.53,3.506-2.3,6.448-2.3c1.807,0,3.597,0.257,5.358,0.761c1.762,0.505,3.327,1.034,4.68,1.578
		c0.901,0.34,1.347,0.066,1.347-0.827v-3.645C-2699.782,200.479-2700.183,199.987-2700.981,199.524z"/>
	<path fill-rule="evenodd" clip-rule="evenodd" fill="#602E87" d="M-2648.14,197.076h-26.651c-0.315,0-0.575,0.1-0.782,0.298
		c-0.202,0.207-0.297,0.455-0.297,0.737v4.311c0,0.307,0.103,0.538,0.306,0.719c0.223,0.174,0.477,0.266,0.774,0.266h9.544v33.087
		c0,0.306,0.112,0.563,0.344,0.769c0.231,0.223,0.475,0.323,0.744,0.323h5.408c0.297,0,0.545-0.1,0.773-0.306
		c0.202-0.207,0.306-0.463,0.306-0.786v-33.087h9.532c0.315,0,0.558-0.083,0.772-0.248c0.215-0.175,0.328-0.422,0.328-0.736v-4.311
		c0-0.323-0.113-0.579-0.319-0.761C-2647.553,197.167-2647.813,197.076-2648.14,197.076z"/>
	<path fill-rule="evenodd" clip-rule="evenodd" fill="#602E87" d="M-2633.063,197.076h-5.407c-0.276,0-0.529,0.1-0.753,0.298
		c-0.223,0.207-0.334,0.455-0.334,0.737v38.383c0,0.306,0.112,0.563,0.343,0.769c0.232,0.223,0.484,0.323,0.744,0.323h5.407
		c0.269,0,0.522-0.1,0.753-0.323c0.222-0.206,0.335-0.463,0.335-0.769V198.11c0-0.282-0.1-0.529-0.316-0.737
		C-2632.527,197.175-2632.774,197.076-2633.063,197.076z"/>
	<path fill-rule="evenodd" clip-rule="evenodd" fill="#602E87" d="M-2599.268,197.415c-3.038-0.512-6.486-0.769-10.352-0.769
		c-2.592,0-4.807,0.306-6.644,0.918c-1.839,0.613-3.281,1.745-4.352,3.394c-1.063,1.653-1.592,3.936-1.592,6.871v19.032
		c0,2.927,0.529,5.21,1.592,6.854c1.071,1.637,2.512,2.761,4.352,3.382c1.836,0.612,4.052,0.918,6.644,0.918
		c1.612,0,2.774-0.025,3.502-0.058c0.719-0.034,1.657-0.1,2.831-0.182c1.175-0.09,2.042-0.19,2.629-0.29
		c0.58-0.106,1.034-0.182,1.39-0.223c0.727-0.083,1.107-0.463,1.107-1.141v-3.488c0-0.331-0.112-0.605-0.306-0.794
		c-0.198-0.197-0.467-0.297-0.802-0.297h-11.125c-1.574,0-2.687-0.34-3.328-1.025c-0.646-0.678-0.95-1.902-0.95-3.655v-7.06h14.766
		c0.273,0,0.525-0.099,0.749-0.314c0.223-0.215,0.335-0.471,0.335-0.769v-3.919c0-0.298-0.095-0.553-0.307-0.768
		c-0.215-0.216-0.475-0.322-0.777-0.322h-14.766v-5.879c0-1.785,0.304-3.001,0.95-3.671c0.641-0.687,1.754-1.018,3.328-1.018h11.125
		c0.306,0,0.558-0.106,0.773-0.314c0.215-0.215,0.334-0.47,0.334-0.784v-3.476c0-0.389-0.094-0.669-0.243-0.827
		C-2598.553,197.572-2598.83,197.473-2599.268,197.415z"/>
	<path fill-rule="evenodd" clip-rule="evenodd" fill="#602E87" d="M-2618.536,194.249h4.526c0.306,0,0.542-0.05,0.69-0.149
		c0.14-0.091,0.343-0.289,0.603-0.572l3.885-4.423l3.879,4.423c0.112,0.134,0.231,0.249,0.363,0.372
		c0.128,0.125,0.26,0.216,0.381,0.266c0.14,0.057,0.311,0.082,0.496,0.082h4.527c0.335,0,0.504-0.116,0.504-0.372
		c0-0.232-0.075-0.414-0.215-0.563l-4.978-6.548c-0.289-0.33-0.5-0.553-0.661-0.644c-0.166-0.108-0.41-0.149-0.752-0.149h-7.081
		c-0.336,0-0.571,0.041-0.72,0.132c-0.165,0.082-0.4,0.306-0.706,0.661l-5.015,6.548c-0.141,0.149-0.203,0.331-0.203,0.563
		C-2619.012,194.132-2618.855,194.249-2618.536,194.249z"/>
	<path fill-rule="evenodd" clip-rule="evenodd" fill="#602E87" d="M-2559.512,197.076h-4.684c-0.309,0-0.549,0.091-0.747,0.291
		c-0.194,0.189-0.29,0.438-0.29,0.744v28.668c0,0.34-0.091,0.505-0.261,0.505c-0.164,0-0.313-0.142-0.462-0.423l-12.692-28.032
		c-0.298-0.678-0.624-1.133-0.979-1.389c-0.335-0.248-0.819-0.364-1.419-0.364h-5.878c-0.616,0-1.116,0.207-1.546,0.629
		c-0.431,0.43-0.654,0.952-0.654,1.547v37.242c0,0.306,0.125,0.563,0.357,0.769c0.231,0.223,0.482,0.323,0.756,0.323h4.617
		c0.289,0,0.534-0.1,0.74-0.306c0.203-0.207,0.297-0.463,0.297-0.786v-27.415c0-0.282,0.091-0.431,0.269-0.431
		c0.194,0,0.372,0.149,0.504,0.431l12.084,26.54c0.401,0.852,0.847,1.396,1.344,1.628c0.484,0.231,1.153,0.34,1.991,0.34h5.499
		c0.616,0,1.138-0.206,1.555-0.637c0.43-0.422,0.644-0.942,0.644-1.538v-37.3c0-0.306-0.103-0.555-0.29-0.744
		C-2558.949,197.167-2559.201,197.076-2559.512,197.076z"/>
	<path fill-rule="evenodd" clip-rule="evenodd" fill="#602E87" d="M-2508.506,199.581c-2.898-1.951-6.688-2.935-11.364-2.935
		c-4.139,0-7.689,0.232-10.679,0.72c-0.578,0.081-1.025,0.256-1.306,0.496c-0.306,0.231-0.447,0.612-0.447,1.124v37.507
		c0,0.306,0.104,0.563,0.344,0.769c0.223,0.223,0.475,0.323,0.749,0.323h5.456c0.281,0,0.534-0.1,0.737-0.306
		c0.198-0.207,0.288-0.463,0.288-0.786v-14.212c0.402,0.016,0.749,0.034,1.047,0.049c0.297,0.025,0.938,0.051,1.91,0.1
		c0.987,0.041,1.611,0.058,1.902,0.058c4.667,0,8.449-0.999,11.347-3.018c2.906-2.017,4.353-5.266,4.353-9.756v-0.48
		C-2504.169,204.762-2505.608,201.553-2508.506,199.581L-2508.506,199.581z M-2511.702,209.714L-2511.702,209.714
		c0,1.505-0.289,2.745-0.835,3.704c-0.562,0.95-1.438,1.671-2.621,2.141c-1.19,0.471-2.766,0.712-4.712,0.712
		c-1.484,0-3.097-0.057-4.859-0.166V203.14c1.484-0.157,3.106-0.239,4.859-0.239c2.793,0,4.853,0.487,6.184,1.463
		c1.323,0.975,1.984,2.596,1.984,4.869V209.714z"/>
	<path fill-rule="evenodd" clip-rule="evenodd" fill="#602E87" d="M-2466.731,197.076h-5.396c-0.281,0-0.541,0.1-0.757,0.298
		c-0.222,0.207-0.334,0.455-0.334,0.737v15.043h-15.466V198.11c0-0.282-0.124-0.529-0.338-0.737
		c-0.223-0.198-0.471-0.298-0.752-0.298h-5.404c-0.289,0-0.541,0.1-0.756,0.298c-0.231,0.207-0.343,0.455-0.343,0.737v38.383
		c0,0.306,0.119,0.563,0.35,0.769c0.237,0.223,0.477,0.323,0.749,0.323h5.404c0.26,0,0.512-0.1,0.744-0.323
		c0.222-0.206,0.346-0.463,0.346-0.769v-16.693h15.466v16.693c0,0.306,0.12,0.563,0.348,0.769c0.232,0.223,0.463,0.323,0.744,0.323
		h5.396c0.306,0,0.566-0.1,0.781-0.306c0.215-0.207,0.318-0.463,0.318-0.786V198.11c0-0.323-0.103-0.579-0.306-0.761
		C-2466.145,197.167-2466.405,197.076-2466.731,197.076z"/>
	<path fill-rule="evenodd" clip-rule="evenodd" fill="#602E87" d="M-2433.168,198.431c-2.347-1.199-5.051-1.785-8.091-1.785
		c-3.062,0-5.758,0.587-8.093,1.785c-2.34,1.184-4.175,3.047-5.482,5.603c-1.323,2.547-1.976,5.754-1.976,9.624v7.35
		c0,3.861,0.653,7.069,1.976,9.616c1.307,2.554,3.142,4.415,5.482,5.606c2.335,1.19,5.031,1.785,8.093,1.785
		c3.04,0,5.744-0.595,8.091-1.785c2.336-1.191,4.164-3.052,5.486-5.606c1.307-2.547,1.969-5.754,1.969-9.616v-7.35
		c0-3.87-0.661-7.077-1.969-9.624C-2429.005,201.478-2430.832,199.615-2433.168,198.431L-2433.168,198.431z M-2433.353,221.008
		L-2433.353,221.008c0,3.564-0.646,6.193-1.931,7.888c-1.286,1.696-3.278,2.537-5.975,2.537c-2.698,0-4.695-0.842-5.981-2.537
		c-1.294-1.695-1.926-4.323-1.926-7.888v-7.35c0-3.589,0.632-6.218,1.926-7.889c1.286-1.686,3.283-2.521,5.981-2.521
		c2.697,0,4.689,0.835,5.975,2.521c1.285,1.671,1.931,4.3,1.931,7.889V221.008z"/>
	<path fill-rule="evenodd" clip-rule="evenodd" fill="#602E87" d="M-2387.289,197.076h-4.697c-0.297,0-0.541,0.091-0.736,0.291
		c-0.186,0.189-0.289,0.438-0.289,0.744v28.668c0,0.34-0.091,0.505-0.268,0.505c-0.157,0-0.319-0.142-0.458-0.423l-12.7-28.032
		c-0.297-0.678-0.625-1.133-0.959-1.389c-0.355-0.248-0.839-0.364-1.434-0.364h-5.879c-0.595,0-1.121,0.207-1.547,0.629
		c-0.43,0.43-0.636,0.952-0.636,1.547v37.242c0,0.306,0.112,0.563,0.334,0.769c0.235,0.223,0.488,0.323,0.748,0.323h4.631
		c0.289,0,0.529-0.1,0.735-0.306c0.206-0.207,0.319-0.463,0.319-0.786v-27.415c0-0.282,0.074-0.431,0.259-0.431
		c0.194,0,0.365,0.149,0.492,0.431l12.097,26.54c0.38,0.852,0.838,1.396,1.33,1.628c0.504,0.231,1.167,0.34,2.005,0.34h5.507
		c0.595,0,1.115-0.206,1.537-0.637c0.431-0.422,0.642-0.942,0.642-1.538v-37.3c0-0.306-0.091-0.555-0.299-0.744
		C-2386.748,197.167-2387,197.076-2387.289,197.076z"/>
	<path fill-rule="evenodd" clip-rule="evenodd" fill="#602E87" d="M-2367.739,205.44c1.368-1.53,3.513-2.3,6.437-2.3
		c1.811,0,3.596,0.257,5.378,0.761c1.762,0.505,3.308,1.034,4.659,1.578c0.905,0.34,1.36,0.066,1.36-0.827v-3.645
		c0-0.529-0.393-1.021-1.203-1.484c-0.522-0.348-1.352-0.735-2.44-1.191c-1.099-0.454-2.348-0.843-3.758-1.183
		c-1.397-0.338-2.906-0.504-4.526-0.504c-1.947,0-3.791,0.232-5.544,0.703c-1.731,0.47-3.381,1.323-4.927,2.563
		c-1.559,1.244-2.8,2.979-3.729,5.213c-0.93,2.225-1.397,4.994-1.397,8.317v7.855c0,3.009,0.446,5.606,1.359,7.781
		c0.906,2.174,2.105,3.927,3.613,5.258c1.513,1.339,3.097,2.282,4.754,2.835c1.666,0.563,3.278,0.844,4.89,0.844
		c1.382,0,2.92-0.041,4.622-0.108c1.688-0.075,3.098-0.182,4.234-0.322c1.125-0.141,2.142-0.297,3.035-0.48
		c0.674-0.174,1.016-0.619,1.016-1.33v-18.314c0-0.297-0.103-0.563-0.318-0.769c-0.223-0.206-0.455-0.322-0.744-0.322h-5.404
		c-0.289,0-0.532,0.116-0.735,0.339c-0.199,0.223-0.309,0.471-0.309,0.752v13.923c-1.696,0.108-3.503,0.157-5.396,0.157
		c-1.88,0-3.522-0.819-4.91-2.464c-1.376-1.637-2.068-4.225-2.068-7.781v-7.962C-2369.79,209.607-2369.107,206.985-2367.739,205.44z
		"/>
</g>
<polygon fill-rule="evenodd" clip-rule="evenodd" fill="#602E87" points="-2951.472,30.363 -2951.472,155.232 -2982.033,155.232 
	-2982.033,30.363 -3015.242,30.363 -3015.242,6.01 -2918.485,6.01 -2918.485,30.363 "/>
<path fill-rule="evenodd" clip-rule="evenodd" fill="#602E87" d="M-2786.092,52.931c0,6.931-1.248,13.365-3.749,19.316
	c-2.489,5.959-6.255,11.104-11.274,15.428c-5.04,4.327-11.281,7.703-18.725,10.127c-7.459,2.426-16.103,3.638-25.954,3.638
	c-2.418,0-4.952-0.103-7.59-0.315c-2.641-0.206-4.783-0.447-6.42-0.728v57.629h-29.099V11.905
	c5.841-2.563,12.459-4.587,19.847-6.079c7.384-1.487,15.46-2.232,24.229-2.232c19.12,0,33.687,4.464,43.712,13.4
	C-2791.102,25.928-2786.092,37.909-2786.092,52.931L-2786.092,52.931z M-2815.29,52.726L-2815.29,52.726
	c0-17.45-9.715-26.174-29.111-26.174c-2.918,0-5.775,0.203-8.557,0.622c-2.778,0.417-5.069,0.966-6.846,1.662v48.711
	c3.204,0.767,7.379,1.143,12.519,1.143c10.553,0,18.527-2.317,23.914-6.959C-2817.988,67.09-2815.29,60.765-2815.29,52.726z"/>
<path fill-rule="evenodd" clip-rule="evenodd" fill="#602E87" d="M-2659.889,115.686c0,13.015-4.832,23.25-14.49,30.691
	c-9.661,7.441-23.415,11.162-41.27,11.162c-3.679,0-7.474-0.208-11.377-0.645c-3.915-0.438-7.66-1.001-11.273-1.662
	c-3.593-0.669-6.994-1.496-10.178-2.464c-3.17-0.975-5.911-2-8.198-3.075V11.643c4.991-2.346,11.005-4.237,18.067-5.682
	c7.064-1.441,14.502-2.165,22.327-2.165c8.379,0,15.75,0.957,22.12,2.868c6.376,1.915,11.72,4.544,16.045,7.902
	c4.332,3.353,7.598,7.445,9.81,12.276c2.22,4.833,3.328,10.128,3.328,15.893c0,4.767-0.781,9.109-2.335,13.035
	c-1.559,3.921-3.543,7.356-5.961,10.309c-2.439,2.952-5.13,5.369-8.103,7.244c-2.981,1.879-5.891,3.158-8.731,3.822v0.403
	c3.117,0.812,6.445,2.1,9.963,3.877c3.539,1.778,6.797,4.23,9.772,7.347c2.977,3.118,5.461,6.906,7.471,11.371
	C-2660.89,104.602-2659.889,109.782-2659.889,115.686L-2659.889,115.686z M-2682.002,43.943L-2682.002,43.943
	c0-8.246-2.947-14.67-8.831-19.266c-5.886-4.595-14.377-6.892-25.448-6.892c-4.499,0-8.909,0.332-13.242,1.004
	c-4.32,0.672-7.838,1.581-10.545,2.718v50.508h21.711c6.92,0,12.27-0.446,16.04-1.35c3.775-0.915,7.292-2.534,10.542-4.88
	c2.981-2.22,5.353-5.243,7.123-9.063C-2682.89,52.9-2682.002,48.643-2682.002,43.943L-2682.002,43.943z M-2677.541,114.875
	L-2677.541,114.875c0-11.266-4.528-19.449-13.61-24.541c-1.72-0.944-3.468-1.731-5.238-2.372c-1.769-0.633-3.634-1.155-5.605-1.558
	c-1.976-0.401-4.208-0.704-6.705-0.907c-2.489-0.2-5.432-0.303-8.831-0.303h-22.538v54.543c2.836,1.141,6.527,2.042,11.07,2.712
	c4.527,0.67,8.984,1.008,13.349,1.008c12.319,0,21.741-2.43,28.285-7.292C-2680.815,131.296-2677.541,124.202-2677.541,114.875z"/>
<path fill-rule="evenodd" clip-rule="evenodd" fill="#602E87" d="M-2559.928,149.693c-1.951,1.075-4.292,2.1-7.045,3.075
	c-2.758,0.967-5.775,1.794-9.065,2.464c-3.283,0.661-6.717,1.224-10.31,1.662c-3.584,0.438-7.09,0.645-10.513,0.645
	c-14.684,0-25.676-3.026-32.952-9.104c-7.284-6.068-10.917-14.378-10.917-24.903c0-7.979,1.889-14.383,5.696-19.215
	c3.787-4.828,8.736-8.57,14.838-11.224c6.1-2.644,13.022-4.523,20.772-5.628c7.752-1.111,15.673-1.865,23.795-2.27v-8.447
	c0-8.257-2.36-13.923-7.094-17.009c-4.721-3.081-10.822-4.628-18.26-4.628c-4.895,0-10.07,0.691-15.502,2.066
	c-5.428,1.376-9.967,2.935-13.58,4.68l-4.325-12.176c4.027-1.875,9.157-3.638,15.396-5.283c6.247-1.644,12.745-2.466,19.513-2.466
	c5.907,0,11.297,0.65,16.151,1.961c4.866,1.307,9.053,3.407,12.58,6.293c3.531,2.879,6.201,6.622,8.049,11.215
	c1.852,4.6,2.774,10.184,2.774,16.758V149.693L-2559.928,149.693z M-2575.63,97.072L-2575.63,97.072
	c-5.903,0.471-11.81,0.973-17.706,1.506c-5.9,0.538-11.187,1.662-15.85,3.373c-4.666,1.712-8.474,4.212-11.414,7.495
	c-2.95,3.279-4.44,7.851-4.44,13.688c0,6.565,2.307,11.782,6.9,15.636c4.594,3.861,11.555,5.796,20.881,5.796
	c4.159,0,8.31-0.356,12.477-1.059c4.158-0.703,7.209-1.521,9.152-2.463V97.072z"/>
<path fill-rule="evenodd" clip-rule="evenodd" fill="#602E87" d="M-2473.648,155.232V80.268c0-7.45-2.286-13.368-6.85-17.762
	c-4.568-4.387-11.419-6.589-20.559-6.589c-4.886,0-9.406,0.37-13.538,1.106c-4.143,0.739-7.594,1.682-10.361,2.818v95.39h-17.636
	V49.675c5.524-2.28,11.724-4.137,18.595-5.584c6.862-1.44,14.445-2.163,22.737-2.163c14.937,0,26.172,3.222,33.717,9.657
	c7.549,6.447,11.319,15.497,11.319,27.175v76.471H-2473.648z"/>
<polygon fill-rule="evenodd" clip-rule="evenodd" fill="#602E87" points="-2371.092,155.232 -2422.039,98.176 -2422.452,98.176 
	-2422.452,155.232 -2439.397,155.232 -2439.397,1.81 -2422.452,1.81 -2422.452,95.057 -2422.039,95.057 -2374.224,44.143 
	-2353.716,44.143 -2403.415,96.671 -2350.69,155.232 "/>
<g>
	<linearGradient id="SVGID_1_" gradientUnits="userSpaceOnUse" x1="-3330.3162" y1="-51.6707" x2="-3021.636" y2="25.292">
		<stop  offset="0" style="stop-color:#F2AF22"/>
		<stop  offset="0.26" style="stop-color:#F9A022"/>
		<stop  offset="0.52" style="stop-color:#F78D22"/>
		<stop  offset="0.75" style="stop-color:#F17B23"/>
		<stop  offset="1" style="stop-color:#E56725"/>
	</linearGradient>
	<path fill-rule="evenodd" clip-rule="evenodd" fill="url(#SVGID_1_)" d="M-3255.545-22.881c-1.359,0-2.653,0.077-3.894,0.225
		c1.555,0.16,3.035,0.564,4.411,1.162h0.005l59.893,25.439l94.036,39.94l50.99-38.406V5.475c0.318-0.244,0.628-0.504,0.942-0.771
		l0.19-0.342c4.175-7.3,4.836-14.155,1.86-19.278c-2.977-5.135-9.252-7.964-17.669-7.964H-3255.545z"/>
	<linearGradient id="SVGID_2_" gradientUnits="userSpaceOnUse" x1="-3223.9128" y1="172.0686" x2="-3223.9128" y2="-19.9304">
		<stop  offset="0" style="stop-color:#F2AF22"/>
		<stop  offset="0.26" style="stop-color:#F9A022"/>
		<stop  offset="0.52" style="stop-color:#F78D22"/>
		<stop  offset="0.75" style="stop-color:#F17B23"/>
		<stop  offset="1" style="stop-color:#E56725"/>
	</linearGradient>
	<path fill-rule="evenodd" clip-rule="evenodd" fill="url(#SVGID_2_)" d="M-3273.183-14.936c-2.965,5.123-2.282,11.961,1.909,19.25
		l95.88,166.636c0.806,1.406,1.67,2.688,2.568,3.844c-0.059-0.107-0.137-0.19-0.191-0.281c-1.067-1.843-1.687-3.827-1.91-5.812
		h-0.004L-3195.13,3.946l-59.893-25.439h-0.005c-1.376-0.597-2.856-1.002-4.411-1.162
		C-3265.882-21.907-3270.699-19.232-3273.183-14.936z"/>
	<linearGradient id="SVGID_3_" gradientUnits="userSpaceOnUse" x1="-2993.3843" y1="-37.2524" x2="-3270.0933" y2="249.2882">
		<stop  offset="0" style="stop-color:#F2AF22"/>
		<stop  offset="0.26" style="stop-color:#F9A022"/>
		<stop  offset="0.52" style="stop-color:#F78D22"/>
		<stop  offset="0.75" style="stop-color:#F17B23"/>
		<stop  offset="1" style="stop-color:#E56725"/>
	</linearGradient>
	<path fill-rule="evenodd" clip-rule="evenodd" fill="url(#SVGID_3_)" d="M-3049.168,4.707l0.001,0.001l-95.014,166.2
		c-4.179,7.318-9.728,11.335-15.61,11.335c-4.741,0-9.265-2.621-13.034-7.449c-0.059-0.107-0.137-0.19-0.191-0.281
		c-1.067-1.843-1.687-3.827-1.91-5.812h-0.004l-7.767-63.35l81.604-61.465l50.99-38.406V5.475
		C-3049.788,5.231-3049.478,4.976-3049.168,4.707z"/>
</g>
<polygon fill-rule="evenodd" clip-rule="evenodd" fill="#602E87" points="-645.127,75.682 -645.127,200.55 -675.688,200.55 
	-675.688,75.682 -708.897,75.682 -708.897,51.328 -612.14,51.328 -612.14,75.682 "/>
<path fill-rule="evenodd" clip-rule="evenodd" fill="#602E87" d="M-479.747,98.25c0,6.931-1.247,13.365-3.748,19.316
	c-2.489,5.959-6.255,11.104-11.274,15.428c-5.04,4.327-11.281,7.703-18.725,10.127c-7.459,2.426-16.102,3.638-25.954,3.638
	c-2.418,0-4.952-0.103-7.59-0.315c-2.641-0.206-4.783-0.447-6.42-0.727v57.629h-29.099V57.224
	c5.841-2.563,12.459-4.587,19.847-6.079c7.384-1.487,15.46-2.232,24.229-2.232c19.12,0,33.687,4.464,43.712,13.4
	C-484.757,71.247-479.747,83.228-479.747,98.25L-479.747,98.25z M-508.945,98.044L-508.945,98.044
	c0-17.451-9.715-26.174-29.111-26.174c-2.918,0-5.775,0.203-8.556,0.622c-2.778,0.417-5.069,0.966-6.846,1.662v48.712
	c3.204,0.767,7.379,1.143,12.518,1.143c10.553,0,18.527-2.317,23.914-6.959C-511.643,112.409-508.945,106.083-508.945,98.044z"/>
<path fill-rule="evenodd" clip-rule="evenodd" fill="#602E87" d="M-353.544,161.005c0,13.015-4.832,23.25-14.49,30.691
	c-9.661,7.441-23.415,11.162-41.27,11.162c-3.679,0-7.474-0.207-11.377-0.645c-3.915-0.438-7.66-1.001-11.273-1.662
	c-3.593-0.669-6.994-1.496-10.178-2.464c-3.171-0.975-5.911-2-8.199-3.075V56.962c4.991-2.346,11.005-4.237,18.067-5.682
	c7.064-1.441,14.501-2.165,22.327-2.165c8.379,0,15.75,0.957,22.12,2.868c6.376,1.915,11.72,4.544,16.045,7.902
	c4.331,3.353,7.598,7.445,9.809,12.276c2.22,4.834,3.328,10.128,3.328,15.893c0,4.767-0.781,9.109-2.335,13.035
	c-1.559,3.921-3.543,7.356-5.961,10.31c-2.44,2.952-5.13,5.369-8.103,7.244c-2.981,1.879-5.891,3.158-8.731,3.822v0.403
	c3.117,0.812,6.445,2.1,9.963,3.877c3.539,1.778,6.797,4.23,9.772,7.347c2.978,3.118,5.461,6.906,7.471,11.371
	C-354.545,149.92-353.544,155.1-353.544,161.005L-353.544,161.005z M-375.657,89.262L-375.657,89.262
	c0-8.246-2.947-14.67-8.831-19.266c-5.886-4.595-14.377-6.893-25.448-6.893c-4.499,0-8.909,0.332-13.242,1.004
	c-4.32,0.672-7.838,1.581-10.545,2.718v50.508h21.711c6.92,0,12.27-0.446,16.04-1.35c3.775-0.915,7.293-2.534,10.541-4.88
	c2.981-2.22,5.353-5.243,7.123-9.063C-376.545,98.219-375.657,93.961-375.657,89.262L-375.657,89.262z M-371.195,160.194
	L-371.195,160.194c0-11.266-4.528-19.449-13.61-24.541c-1.72-0.944-3.468-1.731-5.238-2.372c-1.769-0.633-3.634-1.155-5.605-1.558
	c-1.976-0.401-4.208-0.704-6.705-0.907c-2.489-0.2-5.432-0.303-8.831-0.303h-22.538v54.543c2.836,1.141,6.527,2.042,11.07,2.712
	c4.527,0.669,8.984,1.008,13.349,1.008c12.319,0,21.741-2.43,28.285-7.292C-374.47,176.615-371.195,169.521-371.195,160.194z"/>
<path fill-rule="evenodd" clip-rule="evenodd" fill="#602E87" d="M-253.583,195.012c-1.951,1.075-4.292,2.1-7.045,3.075
	c-2.758,0.967-5.775,1.794-9.065,2.464c-3.284,0.661-6.717,1.224-10.31,1.662c-3.584,0.438-7.09,0.645-10.513,0.645
	c-14.684,0-25.675-3.026-32.952-9.104c-7.284-6.068-10.917-14.378-10.917-24.903c0-7.979,1.889-14.383,5.696-19.215
	c3.787-4.828,8.735-8.57,14.838-11.224c6.1-2.644,13.022-4.523,20.772-5.628c7.752-1.111,15.673-1.865,23.795-2.27v-8.447
	c0-8.257-2.36-13.923-7.094-17.009c-4.721-3.081-10.822-4.628-18.26-4.628c-4.894,0-10.07,0.691-15.502,2.066
	c-5.428,1.376-9.967,2.935-13.58,4.68l-4.325-12.176c4.027-1.875,9.157-3.638,15.396-5.283c6.247-1.644,12.745-2.466,19.513-2.466
	c5.907,0,11.297,0.65,16.151,1.961c4.866,1.307,9.053,3.407,12.579,6.293c3.531,2.879,6.202,6.622,8.05,11.215
	c1.852,4.6,2.774,10.184,2.774,16.758V195.012L-253.583,195.012z M-269.285,142.391L-269.285,142.391
	c-5.903,0.471-11.81,0.973-17.706,1.506c-5.9,0.538-11.187,1.662-15.85,3.373c-4.666,1.712-8.474,4.212-11.414,7.495
	c-2.95,3.279-4.44,7.851-4.44,13.688c0,6.565,2.307,11.782,6.9,15.636c4.594,3.861,11.555,5.796,20.881,5.796
	c4.159,0,8.31-0.356,12.477-1.059c4.158-0.703,7.209-1.521,9.152-2.463V142.391z"/>
<path fill-rule="evenodd" clip-rule="evenodd" fill="#602E87" d="M-167.303,200.55v-74.963c0-7.45-2.286-13.368-6.85-17.762
	c-4.568-4.387-11.419-6.589-20.559-6.589c-4.886,0-9.405,0.369-13.538,1.106c-4.143,0.74-7.594,1.682-10.361,2.818v95.39h-17.636
	V94.994c5.523-2.28,11.723-4.137,18.595-5.584c6.862-1.44,14.445-2.163,22.737-2.163c14.937,0,26.172,3.222,33.717,9.657
	c7.549,6.447,11.319,15.497,11.319,27.175v76.471H-167.303z"/>
<polygon fill-rule="evenodd" clip-rule="evenodd" fill="#602E87" points="-64.747,200.55 -115.694,143.494 -116.107,143.494 
	-116.107,200.55 -133.052,200.55 -133.052,47.129 -116.107,47.129 -116.107,140.376 -115.694,140.376 -67.879,89.462 
	-47.371,89.462 -97.07,141.99 -44.345,200.55 "/>
<g>
	<linearGradient id="SVGID_4_" gradientUnits="userSpaceOnUse" x1="-1023.9711" y1="-6.3518" x2="-715.291" y2="70.6108">
		<stop  offset="0" style="stop-color:#F2AF22"/>
		<stop  offset="0.26" style="stop-color:#F9A022"/>
		<stop  offset="0.52" style="stop-color:#F78D22"/>
		<stop  offset="0.75" style="stop-color:#F17B23"/>
		<stop  offset="1" style="stop-color:#E56725"/>
	</linearGradient>
	<path fill-rule="evenodd" clip-rule="evenodd" fill="url(#SVGID_4_)" d="M-949.2,22.438c-1.359,0-2.653,0.077-3.894,0.225
		c1.555,0.16,3.035,0.564,4.411,1.162h0.005l59.893,25.439l94.036,39.94l50.99-38.406v-0.005c0.318-0.244,0.628-0.504,0.942-0.771
		l0.19-0.342c4.175-7.3,4.836-14.155,1.86-19.278c-2.977-5.135-9.252-7.964-17.669-7.964H-949.2z"/>
	<linearGradient id="SVGID_5_" gradientUnits="userSpaceOnUse" x1="-917.5679" y1="217.3875" x2="-917.5679" y2="25.3884">
		<stop  offset="0" style="stop-color:#F2AF22"/>
		<stop  offset="0.26" style="stop-color:#F9A022"/>
		<stop  offset="0.52" style="stop-color:#F78D22"/>
		<stop  offset="0.75" style="stop-color:#F17B23"/>
		<stop  offset="1" style="stop-color:#E56725"/>
	</linearGradient>
	<path fill-rule="evenodd" clip-rule="evenodd" fill="url(#SVGID_5_)" d="M-966.838,30.382c-2.965,5.123-2.282,11.961,1.909,19.25
		l95.88,166.636c0.806,1.406,1.67,2.688,2.568,3.844c-0.059-0.106-0.137-0.19-0.191-0.281c-1.067-1.843-1.687-3.827-1.91-5.812
		h-0.004l-20.199-164.754l-59.893-25.439h-0.005c-1.376-0.597-2.856-1.002-4.411-1.162
		C-959.537,23.412-964.354,26.087-966.838,30.382z"/>
	<linearGradient id="SVGID_6_" gradientUnits="userSpaceOnUse" x1="-687.0392" y1="8.0664" x2="-963.7483" y2="294.607">
		<stop  offset="0" style="stop-color:#F2AF22"/>
		<stop  offset="0.26" style="stop-color:#F9A022"/>
		<stop  offset="0.52" style="stop-color:#F78D22"/>
		<stop  offset="0.75" style="stop-color:#F17B23"/>
		<stop  offset="1" style="stop-color:#E56725"/>
	</linearGradient>
	<path fill-rule="evenodd" clip-rule="evenodd" fill="url(#SVGID_6_)" d="M-742.823,50.025l0.001,0.001l-95.014,166.2
		c-4.18,7.318-9.728,11.335-15.61,11.335c-4.741,0-9.265-2.621-13.034-7.45c-0.059-0.106-0.137-0.19-0.191-0.281
		c-1.067-1.843-1.687-3.827-1.91-5.812h-0.004l-7.767-63.35l81.605-61.465l50.99-38.406v-0.005
		C-743.442,50.55-743.133,50.294-742.823,50.025z"/>
</g>
<g>
	<linearGradient id="SVGID_7_" gradientUnits="userSpaceOnUse" x1="-45.1779" y1="-6.3518" x2="263.5023" y2="70.6108">
		<stop  offset="0" style="stop-color:#F2AF22"/>
		<stop  offset="0.26" style="stop-color:#F9A022"/>
		<stop  offset="0.52" style="stop-color:#F78D22"/>
		<stop  offset="0.75" style="stop-color:#F17B23"/>
		<stop  offset="1" style="stop-color:#E56725"/>
	</linearGradient>
	<path fill-rule="evenodd" clip-rule="evenodd" fill="url(#SVGID_7_)" d="M29.593,22.438c-1.359,0-2.653,0.077-3.894,0.225
		c1.555,0.16,3.035,0.564,4.411,1.162h0.005l59.893,25.439l94.036,39.94l50.99-38.406v-0.005c0.318-0.244,0.628-0.504,0.942-0.771
		l0.19-0.342c4.175-7.3,4.836-14.155,1.86-19.278c-2.977-5.135-9.252-7.964-17.669-7.964H29.593z"/>
	<linearGradient id="SVGID_8_" gradientUnits="userSpaceOnUse" x1="61.2253" y1="217.3875" x2="61.2253" y2="25.3884">
		<stop  offset="0" style="stop-color:#F2AF22"/>
		<stop  offset="0.26" style="stop-color:#F9A022"/>
		<stop  offset="0.52" style="stop-color:#F78D22"/>
		<stop  offset="0.75" style="stop-color:#F17B23"/>
		<stop  offset="1" style="stop-color:#E56725"/>
	</linearGradient>
	<path fill-rule="evenodd" clip-rule="evenodd" fill="url(#SVGID_8_)" d="M11.955,30.382c-2.965,5.123-2.282,11.961,1.909,19.25
		l95.88,166.636c0.806,1.406,1.67,2.688,2.568,3.844c-0.059-0.106-0.137-0.19-0.191-0.281c-1.067-1.843-1.687-3.827-1.91-5.812
		h-0.004L90.008,49.265L30.116,23.825h-0.005c-1.376-0.597-2.856-1.002-4.411-1.162C19.256,23.412,14.439,26.087,11.955,30.382z"/>
	<linearGradient id="SVGID_9_" gradientUnits="userSpaceOnUse" x1="291.754" y1="8.0664" x2="15.0449" y2="294.607">
		<stop  offset="0" style="stop-color:#F2AF22"/>
		<stop  offset="0.26" style="stop-color:#F9A022"/>
		<stop  offset="0.52" style="stop-color:#F78D22"/>
		<stop  offset="0.75" style="stop-color:#F17B23"/>
		<stop  offset="1" style="stop-color:#E56725"/>
	</linearGradient>
	<path fill-rule="evenodd" clip-rule="evenodd" fill="url(#SVGID_9_)" d="M235.97,50.025l0.001,0.001l-95.014,166.2
		c-4.179,7.318-9.728,11.335-15.61,11.335c-4.741,0-9.265-2.621-13.034-7.45c-0.059-0.106-0.137-0.19-0.191-0.281
		c-1.067-1.843-1.687-3.827-1.91-5.812h-0.004l-7.767-63.35l81.605-61.465l50.99-38.406v-0.005
		C235.351,50.55,235.661,50.294,235.97,50.025z"/>
</g>
<g>
	<linearGradient id="SVGID_10_" gradientUnits="userSpaceOnUse" x1="-2371.0564" y1="-104.0156" x2="-1968.2196" y2="-3.5771">
		<stop  offset="0" style="stop-color:#F2AF22"/>
		<stop  offset="0.26" style="stop-color:#F9A022"/>
		<stop  offset="0.52" style="stop-color:#F78D22"/>
		<stop  offset="0.75" style="stop-color:#F17B23"/>
		<stop  offset="1" style="stop-color:#E56725"/>
	</linearGradient>
	<path fill-rule="evenodd" clip-rule="evenodd" fill="url(#SVGID_10_)" d="M-2273.478-66.444c-1.774,0-3.462,0.1-5.082,0.294
		c2.03,0.209,3.96,0.737,5.757,1.516h0.006l78.162,33.199l122.72,52.123l66.543-50.121v-0.006c0.415-0.318,0.819-0.658,1.23-1.006
		l0.248-0.447c5.449-9.527,6.312-18.472,2.428-25.159c-3.885-6.701-12.074-10.394-23.059-10.394H-2273.478z"/>
	<linearGradient id="SVGID_11_" gradientUnits="userSpaceOnUse" x1="-2232.197" y1="187.9709" x2="-2232.197" y2="-62.5936">
		<stop  offset="0" style="stop-color:#F2AF22"/>
		<stop  offset="0.26" style="stop-color:#F9A022"/>
		<stop  offset="0.52" style="stop-color:#F78D22"/>
		<stop  offset="0.75" style="stop-color:#F17B23"/>
		<stop  offset="1" style="stop-color:#E56725"/>
	</linearGradient>
	<path fill-rule="evenodd" clip-rule="evenodd" fill="url(#SVGID_11_)" d="M-2296.496-56.076
		c-3.869,6.686-2.979,15.609,2.491,25.121l125.127,217.465c1.052,1.835,2.18,3.508,3.351,5.017
		c-0.077-0.139-0.179-0.248-0.249-0.367c-1.392-2.405-2.202-4.995-2.493-7.585h-0.005l-26.361-215.009l-78.162-33.199h-0.006
		c-1.796-0.779-3.727-1.307-5.757-1.516C-2286.968-65.173-2293.254-61.682-2296.496-56.076z"/>
	<linearGradient id="SVGID_12_" gradientUnits="userSpaceOnUse" x1="-1931.3503" y1="-85.1994" x2="-2292.4639" y2="288.7447">
		<stop  offset="0" style="stop-color:#F2AF22"/>
		<stop  offset="0.26" style="stop-color:#F9A022"/>
		<stop  offset="0.52" style="stop-color:#F78D22"/>
		<stop  offset="0.75" style="stop-color:#F17B23"/>
		<stop  offset="1" style="stop-color:#E56725"/>
	</linearGradient>
	<path fill-rule="evenodd" clip-rule="evenodd" fill="url(#SVGID_12_)" d="M-2004.15-30.442l0.001,0.002l-123.997,216.896
		c-5.454,9.55-12.696,14.793-20.372,14.793c-6.187,0-12.091-3.42-17.01-9.722c-0.077-0.139-0.179-0.248-0.249-0.367
		c-1.392-2.405-2.202-4.995-2.493-7.585h-0.005l-10.137-82.673l106.496-80.213l66.543-50.121v-0.006
		C-2004.958-29.757-2004.554-30.091-2004.15-30.442z"/>
</g>
<g>
	<path fill="#602E87" d="M-1961.668-32.546c43,0.01,86,0.01,129,0c-0.01,11.13,0.04,22.26-0.03,33.39
		c-15.15-0.07-30.31,0.05-45.46-0.06c-0.14,55.2-0.01,110.4-0.06,165.6c-12.55,0.01-25.1,0.01-37.64,0
		c-0.08-55.21,0.13-110.43-0.1-165.64c-15.19,0.25-30.38-0.1-45.57,0.18C-1961.898-10.226-1961.628-21.396-1961.668-32.546z"/>
	<g>
		<path fill="#602E87" d="M-1796.168-21.676c20.33-7.33,41.92-11.76,63.59-11.64c15.62,0.1,31.64,3.82,44.32,13.3
			c13.35,9.31,22.9,24.04,25.24,40.22c2.31,17.45-1.14,36.3-12.25,50.32c-8.86,11.43-22.35,18.44-36.29,21.49
			c-15.32,3.4-31.65,5.46-46.94,0.83c0.01,24.51,0.01,49.03,0,73.54c-12.5,0.06-25-0.08-37.49,0.07
			C-1796.288,103.754-1795.928,41.034-1796.168-21.676z M-1758.488-0.026c0.01,21-0.03,41.99,0.02,62.99
			c4.91,0.91,9.9,1.37,14.9,1.35c8.93,0.03,18.26-0.54,26.26-4.89c9.29-4.82,15.76-14.75,16.13-25.24
			c0.34-7.99-0.92-16.32-5.15-23.23c-4.29-7.24-12.13-11.77-20.29-13.18C-1737.218-3.926-1748.208-3.026-1758.488-0.026z"/>
	</g>
	<g>
		<path fill="#602E87" d="M-1626.138-23.616c20.73-6.69,42.7-10.18,64.49-8.73c15.44,1.17,31.73,5.38,42.94,16.7
			c10.12,10.06,13.78,24.99,12.87,38.89c-0.72,10.93-5.87,21.42-13.98,28.77c-5.08,4.75-11.2,8.25-17.61,10.88
			c17.05,4.8,31.58,18.21,37.13,35.11c2.85,11.11,2.57,23.2-1.6,33.96c-4.5,11.83-14.32,21.01-25.64,26.34
			c-19.95,9.54-42.93,10.54-64.48,7.15c-11.65-1.98-23.26-4.79-34.16-9.4C-1626.028,96.164-1626.128,36.274-1626.138-23.616z
			 M-1603.638-8.886c0.04,21.28-0.07,42.56,0.06,63.84c13.63,1.03,27.31,0.29,40.93-0.64c9.52-0.66,19.52-3.68,26.02-11.05
			c7.16-8.02,8.8-19.53,7.33-29.87c-0.57-5.72-3.46-10.98-7.4-15.07c-7.02-7.14-16.61-11.77-26.62-12.54
			C-1576.958-15.356-1590.598-12.696-1603.638-8.886z M-1603.578,73.644c-0.13,23.5-0.02,47-0.05,70.5
			c8.62,1.75,17.37,2.78,26.13,3.54c12.53,1.41,25.82,0.17,36.91-6.25c7.83-4.64,15.07-11.63,17.25-20.76
			c2.85-11.72-0.71-24.32-7.63-33.97c-7.06-8.36-18.37-11.17-28.72-12.86C-1574.228,71.734-1588.998,72.234-1603.578,73.644z"/>
	</g>
	<path fill="#602E87" d="M-1215.018-32.646c7.3,0,14.61,0.01,21.92,0c0.04,40.03-0.02,80.06,0.03,120.09
		c5.99-5.23,11.13-11.37,16.79-16.95c17.23-17.81,34.45-35.63,51.68-53.44c9.1,0.03,18.2-0.05,27.3,0.04
		c-23.42,24.67-47.02,49.17-70.65,73.62c23.35,25.31,47.07,50.29,70.54,75.5c-8.07,0.04-16.14-0.03-24.2,0.04
		c-1.39-0.16-3.13,0.42-4.06-0.91c-22.48-24.68-44.93-49.39-67.42-74.06c0.07,24.94-0.12,49.89,0.09,74.83
		c-7.34,0.24-14.69,0.05-22.03,0.1C-1215.028,99.934-1215.038,33.644-1215.018-32.646z"/>
	<g>
		<path fill="#602E87" d="M-1438.608,17.384c10.63-1.24,21.48-1.77,32.08,0.05c10.75,1.82,21.24,6.93,28.1,15.57
			c6.85,8.48,10.12,19.46,10.33,30.26c0.01,31.06,0,62.12,0.01,93.18c-17.27,7.96-36.55,10.89-55.46,9.92
			c-10.05-0.58-20.45-1.23-29.79-5.33c-11.39-6.09-20.66-16.87-23.46-29.64c-2.12-9.92-0.43-20.46,3.82-29.59
			c5.52-10.79,16.64-17.27,27.67-21.28c18.01-6.32,37.34-7.97,56.33-7.68c0.06-8.96,0.82-18.8-4.71-26.5
			c-5.14-8.08-14.86-11.29-23.92-12.25c-15.51-1.59-31.11,2.43-45.15,8.85c-2.09-5.24-4.33-10.43-6.3-15.72
			C-1459.998,21.284-1449.218,18.794-1438.608,17.384z M-1439.258,96.474c-8.38,3.23-14.04,11.17-16.64,19.5
			c-2.3,7.43-0.03,15.68,5.03,21.45c5.41,6.8,13.99,10.17,22.43,11.15c13.3,1.49,26.74-0.92,39.45-4.81
			c0-18.35,0.03-36.71-0.01-55.06C-1405.948,88.914-1423.458,89.744-1439.258,96.474z"/>
	</g>
	<path fill="#602E87" d="M-1347.788,27.974c18.15-9.21,38.93-12.82,59.17-11.75c14.56,0.85,29.96,4.79,40.48,15.51
		c8.15,8.22,12.21,19.99,11.71,31.48c-0.03,34.34,0,68.67-0.01,103.01c-7.5,0-14.99,0.01-22.48-0.01
		c-0.01-32.68,0.01-65.35-0.01-98.03c0.1-8.38-2.5-17.08-8.56-23.07c-7.56-7.5-18.63-10.5-29.06-10.05
		c-9.92,0.48-19.81,3.11-28.56,7.82c0.28,41.09-0.03,82.19,0.15,123.28c-7.6,0.13-15.19,0.03-22.78,0.06
		C-1347.778,120.134-1347.678,74.054-1347.788,27.974z"/>
	<path fill="#602E87" d="M-1233.748,212.814c4.03-1.42,8.81-2.23,12.81-0.27c2.64,1.19,2.59,4.58,1.65,6.9
		c-1.99,5.19-8.63,7.05-9.75,12.68c-0.38,3.06-7.23,2.79-5.45-0.93c0.3-6.63,9.88-8.15,9.11-14.91c-3.68-0.2-7.18,1.04-10.78,1.42
		C-1235.698,215.974-1236.088,213.224-1233.748,212.814z"/>
	<path fill="#602E87" d="M-1744.168,229.824c2.73-0.12,5.85-0.85,8.39,0.39c2.76,4.24,5.29,8.66,7.45,13.23
		c-2.37,0.24-4.76,0.26-7.13,0.08C-1738.128,238.834-1742.128,234.804-1744.168,229.824z"/>
	<path fill="#602E87" d="M-1585.828,229.934c2.68-0.69,5.51-0.22,8.25-0.19c-4.44,5.17-9.99,9.3-14.99,13.93
		c-2.22,0-4.44-0.04-6.64-0.16C-1595.138,238.634-1590.458,234.264-1585.828,229.934z"/>
	<path fill="#602E87" d="M-1401.138,229.754c2.78-0.28,5.6-0.21,8.4-0.07c1.62-0.07,2.09,1.8,2.87,2.87
		c1.89,3.67,4.26,7.09,5.69,10.98c-2.19,0.09-4.36,0.13-6.53,0.18c-2.39-3.26-4.42-6.76-6.64-10.12c-3.27,3.01-6.42,6.17-9.79,9.07
		c-2.02,1.83-5.01,0.7-7.43,0.94c1.61-3.04,4.47-5.08,6.75-7.58C-1405.598,233.944-1403.758,231.364-1401.138,229.754z"/>
	<path fill="#602E87" d="M-1368.628,232.284c2.22-1.55,5.3-0.66,7.82-0.33c-0.77,3.22-0.88,6.71-2.37,9.7
		c-2.2,1.31-5.05,0.4-7.48,0.46C-1370.398,238.784-1369.998,235.354-1368.628,232.284z"/>
	<path fill="#602E87" d="M-1280.128,231.774c2.22-0.34,4.88-0.75,6.94,0.34c-0.36,3.19-0.81,6.54-2.12,9.48
		c-2.06,1.32-4.93,0.69-7.24,0.42C-1282.868,238.764-1282.248,234.324-1280.128,231.774z"/>
	<path fill="#602E87" d="M-1248.348,231.324c3.15-0.76,6.53-0.36,9.77-0.23c3.18,4.12,5.5,8.96,7.74,13.67
		c-2.2,0.16-4.39,0.21-6.57,0.25c-2.35-3.21-4.41-6.62-6.47-10.02c-3.92,3.02-7.08,6.91-11.08,9.8c-2.16,0.42-4.36,0.1-6.51-0.07
		C-1257.378,240.004-1252.918,235.584-1248.348,231.324z"/>
	<path fill="#602E87" d="M-1657.918,233.674c1.18-2.93,5.24-1.15,7.66-1.58c-0.32,6.85-2.65,13.46-3.78,20.21
		c6.83-2.29,14.65-4.16,21.57-1.22c5.64,2.63,6.34,9.83,5.31,15.24c-2,10.31-4.3,20.56-6.46,30.83c-0.56,3.93-5.5,2.37-8.18,2.29
		c1.85-11.44,4.97-22.65,6.85-34.09c0.68-3.37-0.62-7.66-4.39-8.43c-5.44-0.95-11.1,0.28-16.22,2.15
		c-2.55,12.72-5.33,25.4-8.03,38.09c-0.54,3.91-5.44,2.36-8.13,2.29c2.38-13.89,5.78-27.61,8.56-41.44
		C-1661.388,249.914-1659.798,241.764-1657.918,233.674z"/>
	<path fill="#602E87" d="M-1328.998,234.594c0.42-3.94,5.23-2.17,7.87-2.53c-0.24,6.87-2.6,13.51-3.77,20.27
		c5.46-1.96,11.32-3.22,17.13-2.55c3.6,0.41,7.35,2.26,8.87,5.73c2.31,5.02,1.03,10.7-0.05,15.86c-1.88,8.61-3.61,17.26-5.53,25.86
		c-0.61,3.86-5.48,2.29-8.14,2.19c1.83-11.11,4.72-22.03,6.73-33.11c0.7-3.39,0.16-8.04-3.71-9.2c-5.47-1.47-11.19,0.29-16.51,1.66
		c-3.05,12.8-5.46,25.76-8.36,38.59c-0.71,3.74-5.48,2.15-8.11,2.04C-1338.418,277.734-1333.468,256.204-1328.998,234.594z"/>
	<g>
		<path fill="#602E87" d="M-1147.518,234.304c0.64-3.69,5.36-1.89,7.96-2.1c-0.57,6.18-2.39,12.16-3.53,18.25
			c7.03-0.83,15.03-2.2,21.34,1.91c5.13,3.46,5.72,10.36,4.88,15.97c-1.55,8.36-2.78,17.41-8.49,24.14
			c-3.67,4.58-9.34,7.36-15.18,7.73c-6.84,0.38-13.73-0.26-20.4-1.75C-1156.858,277.004-1151.988,255.684-1147.518,234.304z
			 M-1144.508,257.114c-2.48,11.92-5.03,23.83-7.54,35.75c6.48,0.2,14.22,2.23,19.6-2.57c5.44-5.53,5.92-13.76,7.52-20.94
			c0.67-4.17,0.79-10.07-3.86-11.96C-1133.848,255.734-1139.318,256.734-1144.508,257.114z"/>
	</g>
	<path fill="#602E87" d="M-1796.148,234.264c1.61-2.64,5.68-1.08,8.33-1.17c1.43,19.68,2.26,39.4,3.71,59.07
		c0.29,2.04,2.67,1.31,3.17-0.31c9.4-18.96,18.55-38.06,27.87-57.06c1.46-3.46,5.98-1.48,8.85-1.77c-0.44,1.39-0.85,2.82-1.52,4.13
		c-9.44,18.88-18.69,37.87-28.13,56.75c-2.39,5.43-9.43,7.95-14.78,5.52c-3.05-1.44-3.4-5.13-3.54-8.08
		C-1793.428,272.314-1795.098,253.294-1796.148,234.264z"/>
	<path fill="#602E87" d="M-1443.328,240.514c2.11-1.73,5.24-1.28,7.83-1.51c-0.51,3.79-1.43,7.5-2.19,11.25
		c3.6,0.13,7.27-0.34,10.84,0.3c0.46,1.95,0.11,4.66-1.54,6.01c-3.48,0.76-7.13,0.15-10.66,0.3c-2.25,10.09-4.3,20.23-6.5,30.33
		c-0.53,2.01-0.62,4.09-0.4,6.15c3.43,0.88,7,0.54,10.51,0.76c-0.5,1.72-0.04,4.2-1.54,5.41c-3.11,0.97-6.48,0.86-9.69,0.7
		c-2.49-0.26-5.47-0.81-6.83-3.16c-1.26-2.49-0.77-5.4-0.33-8.02c2.25-10.73,4.57-21.44,6.82-32.16c-3.39-0.39-6.82-0.63-10.15-1.41
		c0.53-1.65,0.3-3.77,1.66-5.02c3.28-0.4,6.6-0.14,9.9-0.19C-1444.818,247.014-1444.458,243.654-1443.328,240.514z"/>
	<path fill="#602E87" d="M-1698.098,255.604c7.3-7.14,19.69-8.07,28.19-2.57c-0.46,1.94-0.93,3.87-1.43,5.8
		c-6.34-1.59-13.81-4.3-19.78-0.21c-6.42,4.72-7.02,13.32-8.66,20.48c-0.97,4.62-1.25,11.22,3.89,13.49
		c5.82,2.05,11.9-0.42,17.63-1.63c-0.51,2.3,0.09,5.86-2.76,6.76c-5.63,2.4-12.07,3.38-18.05,1.75c-4-1.1-7.42-4.23-8.52-8.28
		c-1.91-6.32,0.12-12.88,1.39-19.11C-1704.938,266.054-1702.598,259.974-1698.098,255.604z"/>
	<g>
		<path fill="#602E87" d="M-1405.048,249.884c4.66-0.58,9.73-0.44,13.9,1.98c3.93,2.29,6.01,6.84,6.28,11.27
			c0.37,5.55-1.27,10.95-2.39,16.33c-1.85,8.28-7.18,16.33-15.4,19.33c-6,2.05-13.08,2.38-18.77-0.72
			c-5.75-3.34-7.08-10.8-6.06-16.89c1.49-7.95,2.61-16.53,7.96-22.97C-1415.978,253.724-1410.738,250.634-1405.048,249.884z
			 M-1406.108,256.944c-6.57,1.49-10.21,8.11-11.47,14.24c-1.03,5.73-3.43,11.77-1.39,17.55c2.25,5.27,9.22,5.43,13.92,3.85
			c6.32-2.3,9.24-9.13,10.38-15.28c1-5.43,3.18-11.38,0.61-16.69C-1396.318,256.354-1401.928,256.014-1406.108,256.944z"/>
	</g>
	<path fill="#602E87" d="M-1740.188,252.224c0.89-3.35,5.33-1.54,7.81-1.9c0.09,3-0.82,5.9-1.4,8.82
		c-2.79,12.9-5.42,25.83-8.29,38.71c-1.07,3.22-5.36,1.47-7.85,1.7c0.18-3.79,1.28-7.43,2-11.12
		C-1745.328,276.364-1742.838,264.274-1740.188,252.224z"/>
	<path fill="#602E87" d="M-1615.358,252.284c0.23-2.42,3.09-2.1,4.85-2.09c1.2,0.01,3.71-0.02,2.97,1.96
		c-1.99,10.43-4.5,20.76-6.51,31.19c-0.58,3.28-0.64,7.9,3.06,9.38c5.54,1.93,11.49,0.24,17.08-0.71c2.65-12.55,5.37-25.08,8-37.64
		c0.39-1.27,0.33-2.9,1.51-3.78c2.2-0.73,4.58-0.23,6.86-0.19c-0.12,2.59-0.62,5.15-1.22,7.67c-2.58,12.03-5.12,24.08-7.68,36.11
		c-0.22,1.48-0.83,3.17-2.54,3.38c-7.39,1.79-15.04,3.24-22.67,2.57c-3.96-0.32-8.31-2.08-9.92-5.98c-1.6-4.15-0.8-8.73,0.01-12.96
		C-1619.478,271.554-1617.508,261.904-1615.358,252.284z"/>
	<path fill="#602E87" d="M-1565.508,252.374c7.13-1.73,14.5-3.16,21.88-2.65c3.86,0.34,8.33,1.59,10.27,5.31
		c2.17,4.42,1.12,9.53,0.23,14.15c-2.06,9.51-3.96,19.05-6.08,28.54c-1.05,3.33-5.37,1.63-7.9,1.84c1.55-11.58,4.91-22.86,6.74-34.4
		c0.53-3.16-0.31-7.35-3.91-8.21c-5.44-1.34-11.14-0.19-16.48,1.09c-2.72,13.26-5.54,26.51-8.42,39.74
		c-1.09,3.29-5.39,1.56-7.92,1.76c2.26-14.21,5.89-28.19,8.61-42.32C-1568.038,255.414-1567.928,252.624-1565.508,252.374z"/>
	<g>
		<path fill="#602E87" d="M-1521.938,258.834c3.25-4.87,8.69-8.01,14.44-8.84c7.49-1.11,15.07,0.29,22.36,2.02
			c-2.7,15.88-6.61,31.55-9.78,47.35c-1.19,6.4-4.45,13.09-10.79,15.73c-7.98,3.31-17.47,3.18-25.32-0.43
			c-3.17-0.98-1.76-4.89-0.56-6.94c3.51,0.21,6.57,2.55,10.11,2.94c4.34,0.44,9.07,0.74,13.1-1.24c3.68-2.05,4.66-6.46,5.67-10.21
			c-7.21,1.06-15.51,2.54-21.89-1.95c-5.13-3.88-5.29-11.09-4.27-16.87C-1527.348,273.024-1526.298,265.184-1521.938,258.834z
			 M-1509.618,257.154c-4.65,1.44-7.2,6.08-8.5,10.46c-1.29,4.77-2.38,9.62-3.06,14.53c-0.43,3.6-0.22,8.37,3.44,10.3
			c5.08,2.33,10.83,0.85,16.16,0.41c2.86-11.77,5.01-23.71,7.77-35.51C-1498.978,256.294-1504.498,255.604-1509.618,257.154z"/>
	</g>
	<path fill="#602E87" d="M-1373.518,254.154c0.41-1.31,0.32-3.21,1.88-3.77c2.11-0.26,4.25-0.11,6.38-0.08
		c0.1,2.69-0.63,5.31-1.19,7.92c-2.79,12.99-5.5,25.99-8.3,38.97c-0.52,3.93-5.46,2.28-8.12,2.27
		C-1380.248,284.274-1376.518,269.284-1373.518,254.154z"/>
	<path fill="#602E87" d="M-1284.738,251.054c1.91-1.23,5.87-1.47,7.44,0.14c-2.74,14.78-6.24,29.43-9.2,44.17
		c-0.48,1.46-0.37,3.61-2.1,4.24c-2.13,0.32-4.29,0.06-6.4-0.09c1.47-10.31,4.22-20.41,6.2-30.64
		C-1287.358,262.964-1286.648,256.824-1284.738,251.054z"/>
	<g>
		<path fill="#602E87" d="M-1264.408,256.434c6.16-6.42,16.11-8.36,24.47-5.74c5,1.56,8.33,6.46,8.57,11.61
			c0.26,4.97-0.47,10.18-2.37,14.77c-10.42,0.98-21.07,0.13-31.57,0.42c-0.69,3.97-1.76,8.37,0.21,12.16
			c1.89,3.25,6.05,3.86,9.48,3.78c6.22-0.03,12.03-2.39,17.9-4.11c-0.12,2.51,0.12,6.14-2.81,7.13c-6.58,3.03-14.01,4.56-21.23,3.55
			c-4.34-0.58-8.86-2.63-10.85-6.77c-3.16-6.22-1.06-13.3,0.29-19.71C-1271.188,267.294-1269.058,260.944-1264.408,256.434z
			 M-1255.048,257.754c-5.45,2.32-7.83,8.28-8.97,13.69c7.93,0.09,15.87-0.11,23.81,0.11c0.99-4.26,1.98-9.78-1.56-13.14
			C-1245.618,255.794-1250.878,256.104-1255.048,257.754z"/>
	</g>
	<path fill="#602E87" d="M-1219.408,250.544c2.2-0.59,4.51-0.21,6.77-0.16c-1.2,11.74-5.06,23.09-6.68,34.79
		c-0.49,3.06,0.53,6.91,3.9,7.8c5.42,1.47,11.07,0,16.46-0.97c2.84-13.25,5.58-26.52,8.51-39.74c0.89-3.38,5.32-1.65,7.85-1.85
		c-0.97,8.91-3.58,17.57-5.2,26.38c-1.36,6.11-2.52,12.27-3.95,18.36c-0.34,2.77-3.73,2.62-5.76,3.25
		c-8.03,1.4-16.79,3.46-24.65,0.29c-5.6-2.42-5.99-9.4-4.98-14.6c1.88-9.95,4.21-19.82,6.22-29.75
		C-1220.538,253.064-1220.578,251.434-1219.408,250.544z"/>
	<g>
		<path fill="#602E87" d="M-1103.558,252.294c7.12-2.39,15.07-3.89,22.4-1.55c4.44,1.36,7.1,6,6.81,10.51
			c-0.41,6.84-2.57,13.42-3.76,20.13c-1.42,5.42-1.82,11.2-3.89,16.39c-7.55,2.68-15.85,3.06-23.75,2.05
			c-4.22-0.55-9.03-2.83-9.7-7.5c-0.87-7.22,1.77-15.93,8.78-19.27c7.16-3.43,15.33-2.9,23.06-2.93c0.59-4.03,3.15-9.93-1.24-12.61
			c-7.07-2.54-14.52,0.24-21.56,1.5C-1106.108,256.674-1106.508,253.044-1103.558,252.294z M-1100.858,276.954
			c-3.5,0.99-5.65,4.32-6.21,7.76c-0.59,2.72-1.21,6.67,1.87,8.15c5.27,2.11,11.2,1.25,16.69,0.51c1.18-5.85,2.46-11.68,3.67-17.52
			C-1090.188,275.984-1095.678,275.404-1100.858,276.954z"/>
	</g>
	<path fill="#602E87" d="M-1055.458,251.404c8.01-1.39,16.83-3.43,24.54,0.16c5.3,2.73,5.25,9.63,4.28,14.71
		c-2.12,10.5-4.35,20.99-6.63,31.46c-1.02,3.3-5.29,1.59-7.79,1.9c1.25-11.6,4.89-22.87,6.62-34.42c0.55-3.18-0.29-7.39-3.9-8.26
		c-5.42-1.36-11.07-0.13-16.41,1.01c-2.85,13.28-5.57,26.59-8.51,39.85c-1.04,3.21-5.24,1.49-7.71,1.86c-0.22-2.49,0.48-4.9,1-7.31
		c2.67-12.4,5.23-24.83,7.91-37.22C-1061.758,251.864-1057.858,252.124-1055.458,251.404z"/>
	<path fill="#602E87" d="M-1104.368,304.484c1.82-1.71,4.62-0.87,6.82-0.48c-0.54,3.12-0.93,6.31-2,9.31
		c-1.6,1.76-4.71,1.25-6.7,0.5C-1106.238,310.634-1105.348,307.484-1104.368,304.484z"/>
</g>
</svg>
